<?xml version="1.0" encoding="UTF-8"?>
<svg width="38px" height="36px" viewBox="0 0 38 36" version="1.1" xmlns="http://www.w3.org/2000/svg" xmlns:xlink="http://www.w3.org/1999/xlink">
    <!-- Generator: Sketch 51.3 (57544) - http://www.bohemiancoding.com/sketch -->
    <title>large_serve_gray_4</title>
    <desc>Created with Sketch.</desc>
    <defs></defs>
    <g id="large_serve_gray_4" stroke="none" stroke-width="1" fill="none" fill-rule="evenodd">
        <g transform="translate(1.000000, 1.000000)" fill="#646464" fill-rule="nonzero" id="Shape">
            <path d="M34.9368774,12.611234 C34.8440806,12.4705882 34.7512838,12.3299425 34.6120885,12.2830606 C34.7512838,12.095533 34.8440806,11.8142415 34.7976822,11.5798319 C34.7512838,10.5484299 34.2872996,8.43874392 32.0137773,5.81335692 C29.6938566,3.18796992 27.6523264,2.48474126 26.6779597,2.29721362 C26.4923661,2.25033171 26.3531708,2.29721362 26.2139756,2.29721362 C26.1675772,2.06280407 26.0283819,1.82839452 25.8427883,1.68774878 C25.0540152,1.03140203 23.1980787,0 19.7181976,0 C16.2383166,0 14.38238,1.07828395 13.5472086,1.68774878 C13.1296228,2.01592216 12.9904276,2.53162318 13.2224197,3.00044228 L13.9647943,4.73507298 L18.6046357,16.0804954 C18.6046357,16.1273773 18.6510341,16.1742592 18.6974325,16.2211411 C18.6046357,16.1742592 18.4654404,16.1742592 18.3262452,16.1742592 L6.12346231,17.2525431 L4.26752575,17.3931889 C3.7571432,17.4400708 3.33955747,17.8151261 3.24676064,18.3308271 C3.06116698,19.3622291 3.01476857,21.518797 4.68511148,24.5661212 C6.30905597,27.6603273 8.16499253,28.7854931 9.09296081,29.2074303 C9.23215605,29.2543123 9.37135129,29.3011942 9.55694495,29.3011942 C9.55694495,29.3011942 9.55694495,29.3011942 9.60334336,29.3011942 C9.60334336,29.5356037 9.69614019,29.7700133 9.83533543,30.0044228 C10.4849132,30.8014153 12.0160609,32.3016364 15.4031451,33.0986289 C16.6095039,33.3799204 17.630269,33.4736842 18.5118389,33.4736842 C20.0893849,33.4736842 21.1565485,33.1455108 21.7597278,32.8642194 C21.8989231,32.8173375 22.0381183,32.6766917 22.1309152,32.5829279 C22.3165088,32.7235736 22.5485009,32.8642194 22.780493,32.8642194 C22.8732898,32.8642194 22.9660866,32.8642194 23.0588834,32.8642194 C24.1724454,32.8642194 26.1675772,32.536046 28.7194899,30.7076515 C31.5497932,28.6917293 32.4777615,26.7226891 32.8025504,25.738169 C32.8489488,25.5975232 32.8489488,25.4099956 32.8489488,25.2693498 C33.0809409,25.2224679 33.3129329,25.1287041 33.4985266,24.9411765 C34.2409012,24.1910659 35.4936584,22.4564352 35.8648457,18.9871738 C36.3288299,15.5179124 35.4936584,13.5019903 34.9368774,12.611234 Z M26.260374,3.32861566 C26.3067724,3.23485184 26.3995692,3.18796992 26.4459677,3.23485184 C27.3275375,3.42237948 29.1834741,4.03184432 31.2714027,6.42282176 C33.3593314,8.8137992 33.7769171,10.6890756 33.8233155,11.6267138 C33.8233155,11.7204777 33.7769171,11.7673596 33.6841203,11.8142415 L32.9417456,12.095533 C32.8489488,11.1578947 32.3849647,9.37638213 30.4826297,7.17293233 C28.5802947,4.96948253 26.817155,4.31313578 25.8891867,4.12560814 L26.260374,3.32861566 Z M32.988144,18.6590004 C32.6633551,21.518797 31.5961916,22.8783724 31.1322075,23.3471915 C31.0858091,23.3940734 31.0394107,23.3940734 30.9930122,23.3471915 L25.5643978,20.1592216 L20.7853611,17.1118974 L26.2139756,15.2835029 L32.1065742,13.5957541 C32.1529726,13.5957541 32.199371,13.5957541 32.2457694,13.642636 C32.6169567,14.2052189 33.3129329,15.7992039 32.988144,18.6590004 Z M25.6107962,5.01636444 C26.2139756,5.11012826 27.8843185,5.62582928 29.8330519,7.82927908 C31.7353869,9.98584697 32.0137773,11.7204777 32.0601758,12.3299425 C32.0601758,12.3768244 32.0137773,12.4237063 31.9673789,12.4237063 L25.9819835,14.3927466 L20.5533691,15.9398496 L22.8268914,10.6421937 L25.5179994,5.06324635 C25.5179994,5.01636444 25.5643978,5.01636444 25.6107962,5.01636444 Z M14.0111927,2.67226891 C13.9647943,2.57850509 14.0111927,2.48474126 14.0575911,2.43785935 C14.7999657,1.87527643 16.4703086,0.937638213 19.6254008,0.937638213 C22.780493,0.937638213 24.4508359,1.87527643 25.1468121,2.43785935 C25.1932105,2.48474126 25.2396089,2.57850509 25.1932105,2.67226891 L24.8684216,3.42237948 C24.0796485,2.85979655 22.5021025,2.01592216 19.6254008,2.01592216 C16.7486991,2.01592216 15.0783562,2.85979655 14.3359816,3.42237948 L14.0111927,2.67226891 Z M14.7535673,4.4068996 C14.7535673,4.36001769 14.7535673,4.31313578 14.7999657,4.26625387 C15.3103483,3.89119858 16.7950975,2.95356037 19.6717992,2.95356037 C22.4557041,2.95356037 23.8940549,3.75055285 24.4972343,4.26625387 C24.5436327,4.31313578 24.5436327,4.36001769 24.5436327,4.4068996 L22.0381183,10.2671384 L19.4398071,15.7054401 L14.7535673,4.4068996 Z M19.532604,16.783724 C19.532604,16.8306059 19.532604,16.8306059 19.532604,16.8774878 C19.532604,16.8774878 19.4862056,16.8774878 19.4398071,16.9243697 C19.3934087,16.9243697 19.3934087,16.9243697 19.3470103,16.8774878 C19.3470103,16.8306059 19.3470103,16.783724 19.3006119,16.7368421 L19.2542135,16.6899602 C19.3006119,16.6899602 19.3934087,16.7368421 19.4398071,16.7368421 C19.4862056,16.783724 19.4862056,16.783724 19.532604,16.783724 Z M18.975823,18.1901813 L20.1357834,23.8628925 L21.11015,29.9575409 C21.11015,30.0044228 21.11015,30.0513047 21.0637516,30.0981866 C20.5069707,30.3794781 18.8366278,30.8951791 16.0527229,30.2388324 C13.2688181,29.5824856 12.0624593,28.3635559 11.6448736,27.8478549 C11.5984752,27.800973 11.5984752,27.7540911 11.6448736,27.7072092 L15.4031451,22.5970809 L18.975823,18.1901813 Z M9.69614019,28.316674 C9.64974178,28.3635559 9.55694495,28.4104379 9.46414812,28.3635559 C8.81457033,28.0822645 7.05143059,27.0508625 5.47388452,24.0973021 C3.98913527,21.2843874 3.98913527,19.3622291 4.17472892,18.4714728 C4.17472892,18.377709 4.26752575,18.3308271 4.36032258,18.3308271 L5.19549403,18.2839452 C5.05629879,19.2215834 5.1026972,21.0968598 6.44825121,23.628483 C7.84020363,26.2069881 9.32495288,27.2383901 10.2065227,27.6603273 L9.69614019,28.316674 Z M7.23702425,23.2065458 C5.89147024,20.6749226 5.98426707,18.9402919 6.0770639,18.2839452 C6.0770639,18.2370632 6.12346231,18.1901813 6.16986073,18.1901813 L18.3262452,17.1587793 C18.2798468,17.2056612 18.2334484,17.2056612 18.2334484,17.2525431 L14.7071689,22.034498 L10.8561005,26.8633348 C10.8097021,26.9102167 10.7633037,26.9102167 10.7169053,26.9102167 C10.1137259,26.6289253 8.62897667,25.738169 7.23702425,23.2065458 Z M21.3421421,32.020345 C20.6925643,32.3485184 18.7902293,32.9579832 15.5423404,32.2078726 C12.4336466,31.4577621 11.0416942,30.1450686 10.4849132,29.4418399 C10.4385148,29.394958 10.4385148,29.3011942 10.4849132,29.2074303 L10.9952958,28.5510836 C11.5984752,29.3011942 12.9904276,30.4732419 15.7743324,31.1295887 C16.841496,31.3639982 17.7230658,31.4577621 18.5118389,31.4577621 C19.8109945,31.4577621 20.6925643,31.1764706 21.2493453,30.942061 L21.3885405,31.7859354 C21.4813374,31.9265812 21.4349389,32.020345 21.3421421,32.020345 Z M22.3165088,29.910659 L21.0637516,23.6753649 L20.1357834,18.0495356 L25.1004137,20.9562141 L30.2506376,24.2848297 C30.297036,24.3317116 30.297036,24.3785935 30.297036,24.4254755 C30.1114424,25.0349403 29.4154662,26.6289253 27.049147,28.316674 C24.6828279,29.9575409 23.012485,30.0981866 22.3629072,30.0513047 C22.3629072,30.0044228 22.3165088,30.0044228 22.3165088,29.910659 Z M28.2091074,29.9575409 C25.6107962,31.7859354 23.7084612,31.9734631 22.8268914,31.9265812 C22.7340945,31.9265812 22.6876961,31.8796992 22.6412977,31.7859354 L22.5021025,30.942061 C22.5485009,30.942061 22.5485009,30.942061 22.5948993,30.942061 C23.569266,30.942061 25.3324057,30.6607696 27.605928,29.0667846 C29.9722471,27.3790358 30.853817,25.738169 31.1322075,24.8474126 L31.8281837,25.2693498 C31.9209805,25.3162318 31.9209805,25.4099956 31.9209805,25.5037594 C31.7353869,26.2069881 30.9466138,28.0353826 28.2091074,29.9575409 Z M34.9832758,18.89341 C34.6120885,22.0813799 33.4985266,23.628483 32.8489488,24.2848297 C32.8025504,24.3317116 32.7097536,24.3785935 32.6169567,24.3317116 L31.9209805,23.9097744 C32.5705583,23.2065458 33.5913234,21.6594427 33.9161123,18.7996462 C34.2409012,15.8929677 33.5913234,14.158337 33.1273393,13.3144626 L33.9161123,13.0800531 C34.0089092,13.0331712 34.101706,13.0800531 34.1481044,13.1738169 C34.6120885,13.9239275 35.3544632,15.7054401 34.9832758,18.89341 Z"></path>
            <path d="M21.7894737,4.42105263 C20.9122807,4.42105263 20.2105263,5.12280702 20.2105263,6 C20.2105263,6.87719298 20.9122807,7.57894737 21.7894737,7.57894737 C22.6666667,7.57894737 23.3684211,6.87719298 23.3684211,6 C23.3684211,5.12280702 22.6666667,4.42105263 21.7894737,4.42105263 Z M21.7894737,6.74561404 C21.3947368,6.74561404 21.0877193,6.43859649 21.0877193,6.04385965 C21.0877193,5.64912281 21.3947368,5.34210526 21.7894737,5.34210526 C22.1842105,5.34210526 22.4912281,5.64912281 22.4912281,6.04385965 C22.4912281,6.43859649 22.1842105,6.74561404 21.7894737,6.74561404 Z"></path>
            <path d="M19.2631579,8.21052632 C18.380805,8.21052632 17.6842105,8.90712074 17.6842105,9.78947368 C17.6842105,10.6718266 18.380805,11.3684211 19.2631579,11.3684211 C20.1455108,11.3684211 20.8421053,10.6718266 20.8421053,9.78947368 C20.8421053,8.90712074 20.1455108,8.21052632 19.2631579,8.21052632 Z M19.2167183,10.4396285 C18.8452012,10.4396285 18.5665635,10.1609907 18.5665635,9.78947368 C18.5665635,9.41795666 18.8452012,9.13931889 19.2167183,9.13931889 C19.5882353,9.13931889 19.8668731,9.41795666 19.8668731,9.78947368 C19.8668731,10.1609907 19.5882353,10.4396285 19.2167183,10.4396285 Z"></path>
            <path d="M28.015521,7.98806075 C27.4332904,7.47993217 26.4276192,7.43758812 25.7924585,7.90337265 C25.4748781,8.11509289 25.316088,8.45384528 25.2631579,8.75025362 C25.2631579,9.089006 25.369018,9.42775839 25.6336683,9.63947863 C25.8983186,9.93588697 26.3217591,10.1052632 26.7451996,10.1052632 C26.7981296,10.1052632 26.7981296,10.1052632 26.8510597,10.1052632 C27.2215701,10.1052632 27.5920805,9.97823101 27.9096609,9.76651077 C28.5448216,9.30072624 28.5977517,8.49618933 28.015521,7.98806075 Z M27.11571,9.21603815 C27.0098499,9.30072624 26.9039898,9.34307029 26.7451996,9.30072624 C26.5864094,9.30072624 26.4805493,9.25838219 26.3746892,9.1736941 C26.268829,9.089006 26.215899,9.00431791 26.268829,8.87728576 C26.3217591,8.75025362 26.3746892,8.62322147 26.4805493,8.58087742 C26.5864094,8.49618933 26.6922695,8.49618933 26.7981296,8.49618933 C26.9569198,8.49618933 27.0627799,8.53853338 27.1686401,8.62322147 C27.3803603,8.79259766 27.3274302,9.04666195 27.11571,9.21603815 Z"></path>
            <path d="M31.2562745,18.9092264 C30.9421985,18.594293 30.5832544,18.3693406 30.1794423,18.3243501 C29.3269501,18.2343691 28.519326,18.8642359 28.4295899,19.7190552 C28.3398539,20.5738745 28.968006,21.3837032 29.8204982,21.4736842 C29.8653662,21.4736842 29.9551023,21.4736842 29.9999703,21.4736842 C30.8075944,21.4736842 31.4806146,20.8888079 31.5703506,20.0789791 C31.6152186,19.6740647 31.4806146,19.2241598 31.2562745,18.9092264 Z M29.9102342,20.6188649 C29.5064222,20.5738745 29.2372141,20.2139506 29.2820821,19.8540267 C29.3269501,19.4491123 29.6858942,19.1791693 30.0448383,19.2241598 C30.2243103,19.2241598 30.4037823,19.3591313 30.4935184,19.4941028 C30.5832544,19.6290742 30.6729904,19.8090362 30.6729904,19.9889981 C30.6281224,20.3939125 30.2691783,20.6638554 29.9102342,20.6188649 Z"></path>
            <path d="M31.3090418,15.005996 C31.1363023,14.7501666 30.8340081,14.5796136 30.488529,14.5369753 C30.1430499,14.4943371 29.7975709,14.5796136 29.5384615,14.7928048 C29.2793522,15.005996 29.1066127,15.3044637 29.0634278,15.6455696 C29.0202429,15.9866755 29.1066127,16.3277815 29.3225371,16.5836109 C29.5384615,16.8394404 29.8407557,17.0099933 30.1862348,17.0526316 C30.2294197,17.0526316 30.2726046,17.0526316 30.3157895,17.0526316 C30.6180837,17.0526316 30.877193,16.9673551 31.0931174,16.7968021 C31.3522267,16.5836109 31.5249663,16.2851432 31.5681511,15.9440373 C31.611336,15.6029314 31.5249663,15.2618254 31.3090418,15.005996 Z M30.5748988,16.1145903 C30.488529,16.1998668 30.3589744,16.1998668 30.2726046,16.1998668 C30.1430499,16.1998668 30.0566802,16.1145903 30.0134953,16.0293138 C29.9271255,15.9440373 29.9271255,15.8161226 29.9271255,15.7308461 C29.9271255,15.6029314 30.0134953,15.5176549 30.099865,15.4750167 C30.1862348,15.3897402 30.3157895,15.3897402 30.4021592,15.3897402 C30.5317139,15.3897402 30.6180837,15.4750167 30.6612686,15.5602931 C30.7044534,15.6455696 30.7476383,15.7734843 30.7476383,15.8587608 C30.7476383,15.9440373 30.6612686,16.071952 30.5748988,16.1145903 Z"></path>
            <path d="M24.9542927,21.5196172 C24.6797458,21.1521531 24.3594412,20.922488 23.9476209,20.876555 C23.5358007,20.784689 23.1239804,20.876555 22.7579179,21.1521531 C22.0715508,21.6574163 21.8885196,22.6220096 22.3918555,23.3569378 C22.6664023,23.7703349 23.1697382,24 23.6730741,24 C23.9933787,24 24.3136834,23.908134 24.5882302,23.7244019 C24.9542927,23.4947368 25.1830817,23.1272727 25.2288395,22.7138756 C25.3203552,22.3004785 25.2288395,21.8870813 24.9542927,21.5196172 Z M24.3136834,22.5760766 C24.2679256,22.7598086 24.17641,22.8976077 24.0391365,22.9894737 C23.7645897,23.2191388 23.3527694,23.1272727 23.1239804,22.8057416 C22.9409492,22.5301435 22.986707,22.1167464 23.3070116,21.8870813 C23.5815585,21.7033493 23.9933787,21.7492823 24.2221678,22.0708134 C24.3136834,22.2086124 24.3594412,22.3923445 24.3136834,22.5760766 Z"></path>
            <path d="M17.9705184,25.9455946 C17.6289927,25.8402713 17.287467,25.8929329 17.0313227,26.1562412 C16.7324876,26.3668877 16.5617248,26.7355192 16.4763433,27.1041508 C16.2628898,27.9467371 16.6897969,28.7893234 17.3728484,28.9999699 C17.4582298,29.0526316 17.586302,29.0526316 17.6716834,29.0526316 C18.2266627,29.0526316 18.7816421,28.5786768 18.9097142,27.8414138 C19.0804771,26.9988275 18.6535699,26.1562412 17.9705184,25.9455946 Z M18.0132092,27.6307672 C17.9705184,27.8940754 17.7570649,28.0520603 17.5009206,27.9993987 C17.3728484,27.9467371 17.287467,27.8940754 17.2447762,27.7887521 C17.2020855,27.6834288 17.2447762,27.5254439 17.2447762,27.367459 C17.287467,27.209474 17.3301577,27.1041508 17.4155391,27.0514891 C17.5009206,26.9988275 17.5436113,26.9988275 17.6289927,26.9988275 C17.6716834,26.9988275 17.7143741,26.9988275 17.7143741,26.9988275 C17.9278277,27.0514891 18.0558999,27.3147973 18.0132092,27.6307672 Z"></path>
            <path d="M9.91941932,19.1364083 C9.51784103,18.386716 8.53620523,18.0780192 7.77766847,18.5190147 C7.01913172,18.9159106 6.70679305,19.8861006 7.15299115,20.6357928 C7.42071,21.1649874 8.00076752,21.4736842 8.53620523,21.4736842 C8.80392409,21.4736842 9.02702313,21.4295847 9.29474199,21.297286 C10.0532787,20.8562906 10.3209976,19.8861006 9.91941932,19.1364083 Z M8.84854389,20.5034942 C8.49158542,20.6798924 8.09000714,20.5475938 7.9115279,20.2388969 C7.73304866,19.8861006 7.86690809,19.4892047 8.17924676,19.3128065 C8.53620523,19.1364083 8.93778351,19.2687069 9.11626275,19.5774037 C9.29474199,19.8861006 9.16088256,20.327096 8.84854389,20.5034942 Z"></path>
            <path d="M14.3129445,19.8065227 C14.1308677,19.4387242 13.7667141,19.1628753 13.4025605,19.0249509 C12.9928876,18.8870265 12.5832148,18.9330013 12.2190612,19.1628753 C11.8549075,19.3467746 11.5817923,19.7145731 11.4452347,20.0823715 C11.3086771,20.4961448 11.3541963,20.9099181 11.5817923,21.2777166 C11.7638691,21.6914899 12.0825036,21.9673387 12.4921764,22.0592883 C12.628734,22.1052632 12.8108108,22.1052632 12.9473684,22.1052632 C13.2204836,22.1052632 13.4480797,22.0592883 13.6756757,21.9213639 C14.0398293,21.7374647 14.3129445,21.3696662 14.4495021,21.0018677 C14.5860597,20.5880944 14.5405405,20.1743212 14.3129445,19.8065227 Z M13.2204836,21.1397922 C13.083926,21.2317418 12.9018492,21.2317418 12.7197724,21.185767 C12.5376956,21.1397922 12.401138,21.0018677 12.3556188,20.8639433 C12.3100996,20.7260189 12.2645804,20.5421196 12.3100996,20.3582204 C12.3556188,20.1743212 12.4921764,20.0363967 12.628734,19.9904219 C12.7652916,19.8984723 12.9473684,19.8984723 13.1294452,19.9444471 C13.311522,19.9904219 13.4480797,20.1283463 13.4935989,20.2662708 C13.6756757,20.5880944 13.5391181,21.0018677 13.2204836,21.1397922 Z"></path>
            <path d="M15.5716917,12.8533684 L8.24823786,3.18745024 L7.11105558,1.70038591 C6.79264454,1.28214906 6.29228434,1.14273678 5.83741143,1.37509058 C4.92766561,1.79332743 3.15366125,2.90862568 1.51611877,5.92922511 C-0.121423707,8.94982454 -0.0759364163,11.1339503 0.0605254571,12.156307 C0.151500039,12.6674854 0.515398368,13.0392515 1.01575857,13.0857222 L2.83525022,13.2251345 L14.6619459,14.5263158 C14.7529205,14.5263158 14.7984078,14.5263158 14.7984078,14.5263158 C15.1623061,14.5263158 15.4807171,14.3404327 15.6626663,14.0151374 C15.8446155,13.6433713 15.8446155,13.2251345 15.5716917,12.8533684 Z M1.92550439,12.2492485 L1.15222044,12.156307 C1.06124586,12.156307 1.01575857,12.0633655 0.97027128,12.0168947 C0.833809406,11.1339503 0.833809406,9.18217834 2.28940272,6.39393271 C3.79048333,3.60568708 5.38253852,2.58333035 6.15582247,2.25803503 C6.24679705,2.21156427 6.33777163,2.25803503 6.38325892,2.30450579 L6.88361913,2.95509644 C6.01936059,3.37333328 4.56376728,4.39569001 3.19914855,6.90511108 C1.83452981,9.4610029 1.78904252,11.2733626 1.92550439,12.2492485 Z M14.9348697,13.5504298 C14.8893824,13.5969006 14.8893824,13.5969006 14.8438951,13.5969006 L3.01719938,12.2957193 C2.9262248,12.2957193 2.88073751,12.2492485 2.88073751,12.2027778 C2.78976292,11.5521871 2.69878834,9.83276898 4.06340708,7.32334792 C5.42802581,4.81392686 6.88361913,3.97745317 7.42946662,3.6986286 C7.47495391,3.6986286 7.5204412,3.6986286 7.56592849,3.74509937 L14.9348697,13.4110175 C14.9803569,13.4574883 14.9803569,13.5039591 14.9348697,13.5504298 Z"></path>
            <path d="M8.767444,6.18418758 C8.63471288,5.78773001 8.36925062,5.43532327 8.01530095,5.2591199 C7.66135128,5.03886569 7.21891419,4.99481485 6.8207208,5.12696737 C6.42252742,5.2591199 6.06857775,5.52342495 5.89160291,5.87583169 C5.67038437,6.22823843 5.62614066,6.66874685 5.75887179,7.06520442 C5.89160291,7.461662 6.15706517,7.81406874 6.51101484,8.03432295 C6.73223339,8.16647547 6.99769564,8.21052632 7.26315789,8.21052632 C7.83832611,8.21052632 8.36925062,7.90217042 8.63471288,7.37356032 C8.85593142,7.02115358 8.90017513,6.58064516 8.767444,6.18418758 Z M7.83832611,6.97710274 C7.66135128,7.32950948 7.21891419,7.41761116 6.90920822,7.24140779 C6.73223339,7.15330611 6.64374597,7.02115358 6.59950226,6.84495021 C6.55525855,6.66874685 6.59950226,6.49254348 6.68798968,6.31634011 C6.77647709,6.14013674 6.90920822,6.05203506 7.08618306,6.00798422 C7.13042677,6.00798422 7.21891419,5.96393337 7.26315789,5.96393337 C7.39588902,5.96393337 7.48437644,6.00798422 7.57286386,6.05203506 C7.74983869,6.14013674 7.83832611,6.27228927 7.88256982,6.44849264 C7.92681353,6.624696 7.92681353,6.80089937 7.83832611,6.97710274 Z"></path>
            <path d="M9.4353856,9.74658338 C8.84124841,9.22203873 8.07735773,9.48431105 7.73785077,10.271128 C7.56809728,10.6383093 7.52565891,11.057945 7.65297403,11.4775807 C7.73785077,11.8972164 7.95004262,12.2119432 8.24711122,12.4217611 C8.4168647,12.52667 8.62905656,12.6315789 8.84124841,12.6315789 C8.96856352,12.6315789 9.09587864,12.6315789 9.18075538,12.5791245 C9.52026234,12.4742156 9.77489257,12.2119432 9.94464605,11.844762 C10.284153,11.1103995 10.0719612,10.1662191 9.4353856,9.74658338 Z M9.22319375,11.2153084 C9.09587864,11.4775807 8.88368678,11.5300352 8.67149493,11.4251263 C8.58661819,11.3726718 8.50174144,11.2677629 8.45930307,11.1103995 C8.4168647,10.9530361 8.45930307,10.8481271 8.50174144,10.7432182 C8.54417981,10.6383093 8.62905656,10.5334004 8.75637167,10.4809459 C8.75637167,10.5334004 8.79881004,10.4809459 8.84124841,10.4809459 C8.92612515,10.4809459 8.96856352,10.4809459 9.05344026,10.5334004 C9.26563212,10.6907637 9.30807049,10.9530361 9.22319375,11.2153084 Z"></path>
            <path d="M5.6535094,10.1442925 L5.17280714,9.08616826 C5.0926901,8.87454341 4.85233897,8.78989347 4.65204636,8.87454341 C4.45175376,8.95919335 4.37163671,9.21314317 4.45175376,9.42476802 L4.93245601,10.4828923 C5.01257306,10.6521922 5.13274862,10.7368421 5.29298271,10.7368421 C5.33304123,10.7368421 5.41315827,10.7368421 5.45321679,10.6945171 C5.6535094,10.6098672 5.73362644,10.3559174 5.6535094,10.1442925 Z"></path>
            <path d="M17.6369088,6.35481884 L17.1626814,5.29669458 C17.0836435,5.08506973 16.8465297,5.00041978 16.648935,5.08506973 C16.4513402,5.16971967 16.3723023,5.42366949 16.4513402,5.63529434 L16.9255676,6.6934186 C17.0046055,6.86271848 17.1231624,6.94736842 17.2812382,6.94736842 C17.3207572,6.94736842 17.3997951,6.94736842 17.439314,6.90504345 C17.6369088,6.82039351 17.7554656,6.56644369 17.6369088,6.35481884 Z"></path>
            <path d="M25.8640357,12.6706083 L25.3833335,11.6124841 C25.3032164,11.4008592 25.0628653,11.3162093 24.8625727,11.4008592 C24.6622801,11.4855091 24.582163,11.739459 24.6622801,11.9510838 L25.1429823,13.0092081 C25.2230994,13.178508 25.3432749,13.2631579 25.503509,13.2631579 C25.5435675,13.2631579 25.6236846,13.2631579 25.6637431,13.2208329 C25.8640357,13.136183 25.9441528,12.8822332 25.8640357,12.6706083 Z"></path>
            <path d="M15.1271936,27.828503 L14.6464914,26.7703788 C14.5663743,26.5587539 14.3260232,26.474104 14.1257306,26.5587539 C13.925438,26.6434039 13.8453209,26.8973537 13.925438,27.1089786 L14.4061402,28.1671028 C14.4862573,28.3364027 14.6064328,28.4210526 14.7666669,28.4210526 C14.8067254,28.4210526 14.8868425,28.4210526 14.926901,28.3787277 C15.1271936,28.2940777 15.2073107,28.0401279 15.1271936,27.828503 Z"></path>
            <path d="M24.8209375,26.7851445 L23.3676753,26.5340622 C23.1081642,26.4838458 22.7967508,26.6847116 22.7448486,26.9357939 C22.6929464,27.1868762 22.9005553,27.4881749 23.1600664,27.5383914 L24.6133286,27.7894737 C24.6652308,27.7894737 24.6652308,27.7894737 24.7171331,27.7894737 C24.9766442,27.7894737 25.1842531,27.6388243 25.2361553,27.387742 C25.3399597,27.0864433 25.1323508,26.835361 24.8209375,26.7851445 Z"></path>
            <path d="M26.731464,17.9430393 L25.2671915,17.691957 C25.0057142,17.6417405 24.6919416,17.8426064 24.6396461,18.0936886 C24.5873507,18.3447709 24.7965324,18.6460697 25.0580097,18.6962861 L26.5222822,18.9473684 C26.5745777,18.9473684 26.5745777,18.9473684 26.6268731,18.9473684 C26.8883503,18.9473684 27.0975321,18.796719 27.1498276,18.5456368 C27.202123,18.2945545 26.9929412,17.9932557 26.731464,17.9430393 Z"></path>
            <path d="M29.8893587,10.9956708 L28.4250862,10.7445886 C28.163609,10.6943721 27.8498363,10.8952379 27.7975408,11.1463202 C27.7452454,11.447619 27.9544272,11.6987013 28.2159044,11.7489177 L29.6801769,12 C29.7324724,12 29.7324724,12 29.7847678,12 C30.0462451,12 30.2554269,11.8493506 30.3077223,11.5982683 C30.3600178,11.347186 30.150836,11.0458873 29.8893587,10.9956708 Z"></path>
            <path d="M17.6535094,23.4074504 L17.1728071,22.3493262 C17.0926901,22.1377013 16.852339,22.0530514 16.6520464,22.1377013 C16.4517538,22.2223512 16.3716367,22.4763011 16.4517538,22.6879259 L16.932456,23.7460502 C17.0125731,23.9153501 17.1327486,24 17.2929827,24 C17.3330412,24 17.4131583,24 17.4532168,23.957675 C17.6535094,23.8730251 17.7336264,23.6190753 17.6535094,23.4074504 Z"></path>
            <path d="M10.6222203,22.9111642 C10.4871803,22.7145454 10.172087,22.6653907 9.99203366,22.8620095 L9.00174043,23.7467942 C8.82168712,23.8942584 8.77667379,24.2383413 8.9567271,24.4349601 C9.04675376,24.5332695 9.18179375,24.6315789 9.31683373,24.6315789 C9.40686039,24.6315789 9.49688705,24.5824242 9.58691371,24.5332695 L10.5772069,23.6484848 C10.7572602,23.451866 10.8022736,23.1569378 10.6222203,22.9111642 Z"></path>
            <path d="M23.8853782,12.8105439 C23.7503382,12.6086884 23.4352449,12.5582245 23.2551916,12.7600801 L22.2648983,13.617966 C22.084845,13.8198215 22.0398317,14.1226048 22.219885,14.3244603 C22.3099117,14.425388 22.4449516,14.5263158 22.5799916,14.5263158 C22.6700183,14.5263158 22.7600449,14.4758519 22.8500716,14.425388 L23.8403648,13.5170382 C24.0204181,13.3656466 24.0654315,13.0123994 23.8853782,12.8105439 Z"></path>
            <path d="M27.6748518,24.8105439 C27.5398119,24.6086884 27.2247186,24.5582245 27.0446652,24.7600801 L26.054372,25.6684299 C25.8743187,25.8198215 25.8293054,26.1730686 26.0093587,26.3749242 C26.0993853,26.4758519 26.2344253,26.5263158 26.3694653,26.5263158 C26.459492,26.5263158 26.5495186,26.4758519 26.6395453,26.425388 L27.6298385,25.5170382 C27.8098918,25.3656466 27.8549052,25.0123994 27.6748518,24.8105439 Z"></path>
        </g>
    </g>
</svg>