<?xml version="1.0" encoding="UTF-8"?>
<svg width="38px" height="36px" viewBox="0 0 38 36" version="1.1" xmlns="http://www.w3.org/2000/svg" xmlns:xlink="http://www.w3.org/1999/xlink">
    <!-- Generator: Sketch 51.3 (57544) - http://www.bohemiancoding.com/sketch -->
    <title>medium_serve_gray_2</title>
    <desc>Created with Sketch.</desc>
    <defs></defs>
    <g id="medium_serve_gray_2" stroke="none" stroke-width="1" fill="none" fill-rule="evenodd">
        <g transform="translate(1.000000, 1.000000)" fill="#646464" fill-rule="nonzero" id="XMLID_1423_">
            <path d="M8.87341,23.523852 C8.87341,23.8453936 8.6220745,24.1060535 8.31203525,24.1060535 L8.16238878,24.1060535 C7.85234953,24.1060535 7.60101404,23.8453936 7.60101404,23.523852 C7.60101404,23.2023104 7.85234953,22.9416505 8.16238878,22.9416505 L8.31203525,22.9416505 C8.6220745,22.9416505 8.87341,23.2023104 8.87341,23.523852 Z M5.42512553,18.1680971 L5.27555926,18.1680971 C4.96552001,18.1680971 4.71418451,18.4287571 4.71418451,18.7502987 C4.71418451,19.0718402 4.96552001,19.3325002 5.27555926,19.3325002 L5.42512553,19.3325002 C5.73516478,19.3325002 5.98650027,19.0718402 5.98650027,18.7502987 C5.98650027,18.4287571 5.73524498,18.1680971 5.42512553,18.1680971 Z M10.8504916,13.4693983 L10.700765,13.4693983 C10.3907257,13.4693983 10.1393902,13.7300582 10.1393902,14.0515998 C10.1393902,14.3731414 10.3907257,14.6338013 10.700765,14.6338013 L10.8504916,14.6338013 C11.1605309,14.6338013 11.4118664,14.3731414 11.4118664,14.0515998 C11.4118664,13.729975 11.1605309,13.4693983 10.8504916,13.4693983 Z M14.3026255,5.84447144 L14.1531395,5.84447144 C13.8431002,5.84447144 13.5917647,6.10513138 13.5917647,6.42667295 C13.5917647,6.74821453 13.8431002,7.00887446 14.1531395,7.00887446 L14.3026255,7.00887446 C14.6126648,7.00887446 14.8640003,6.74821453 14.8640003,6.42667295 C14.8640003,6.10521455 14.6126648,5.84447144 14.3026255,5.84447144 Z M21.2692861,12.3499911 C21.2692861,11.3215737 22.0762222,10.484867 23.0679308,10.484867 C24.0595592,10.484867 24.8663349,11.3215737 24.8663349,12.3499911 C24.8663349,13.3784917 24.0595592,14.2151984 23.0679308,14.2151984 C22.076142,14.2151152 21.2692861,13.3784085 21.2692861,12.3499911 Z M22.3920356,12.3499911 C22.3920356,12.7364066 22.695178,13.0507954 23.0679308,13.0507954 C23.4405232,13.0507954 23.7435854,12.7364066 23.7435854,12.3499911 C23.7435854,11.9635757 23.4405232,11.64927 23.0679308,11.64927 C22.695178,11.6491868 22.3920356,11.9635757 22.3920356,12.3499911 Z M10.2989009,10.7488538 C10.2989009,11.7773543 9.49204496,12.6140611 8.50033638,12.6140611 C7.5086278,12.6140611 6.70177189,11.7773543 6.70177189,10.7488538 C6.70177189,9.72035324 7.5086278,8.8836465 8.50033638,8.8836465 C9.49204496,8.8836465 10.2989009,9.72035324 10.2989009,10.7488538 Z M9.17615138,10.7488538 C9.17615138,10.3624383 8.87300901,10.0480495 8.50033638,10.0480495 C8.12766375,10.0480495 7.82452138,10.3624383 7.82452138,10.7488538 C7.82452138,11.1352692 8.12766375,11.4496581 8.50033638,11.4496581 C8.87300901,11.4496581 9.17615138,11.1352692 9.17615138,10.7488538 Z M6.03133006,13.4693983 L5.88168359,13.4693983 C5.57164434,13.4693983 5.32030885,13.7300582 5.32030885,14.0515998 C5.32030885,14.3731414 5.57164434,14.6338013 5.88168359,14.6338013 L6.03133006,14.6338013 C6.34136931,14.6338013 6.5927048,14.3731414 6.5927048,14.0515998 C6.5927048,13.729975 6.34136931,13.4693983 6.03133006,13.4693983 Z M17.0787038,7.00887446 L17.2283503,7.00887446 C17.5383896,7.00887446 17.7897251,6.74821453 17.7897251,6.42667295 C17.7897251,6.10513138 17.5383896,5.84447144 17.2283503,5.84447144 L17.0787038,5.84447144 C16.7686646,5.84447144 16.5173291,6.10513138 16.5173291,6.42667295 C16.5173291,6.7482977 16.7686646,7.00887446 17.0787038,7.00887446 Z M29.059724,22.9311709 C29.1420055,22.9751687 29.229981,22.9960447 29.3165931,22.9960447 C29.5199711,22.9960447 29.7162117,22.8810184 29.815976,22.6806579 L29.8845439,22.5427593 C30.0266519,22.2569815 29.9186274,21.9058308 29.6429924,21.7583675 C29.3674376,21.6109042 29.0289286,21.7231859 28.8867404,22.0088805 L28.8181725,22.1467791 C28.6760645,22.4325569 28.7841692,22.7837075 29.059724,22.9311709 Z M23.7413399,29.5700147 C23.8901042,29.8374115 23.8112712,30.176336 23.5670731,30.3451744 C23.5496705,30.358565 23.5314659,30.3709576 23.5122188,30.3824353 C21.1436184,31.7975177 18.4389149,32.5453971 15.6905845,32.5453971 C12.856444,32.5453971 10.1951267,31.761837 7.89782089,30.3929981 C7.88001729,30.3847641 7.86253447,30.3755321 7.84529225,30.3652188 C7.82748865,30.3545728 7.81040682,30.3430119 7.79420715,30.3307025 C3.13575913,27.5056113 0,22.2618886 0,16.2727817 C0,10.2835084 3.13567893,5.03986896 7.79412695,2.21469454 C7.81040682,2.20238514 7.82748865,2.19082428 7.84537245,2.18009514 C7.86269487,2.16978186 7.88025788,2.16046663 7.89798128,2.15231581 C10.1952871,0.783476889 12.8565242,0 15.6906647,0 C18.5248052,0 21.1860423,0.783393717 23.4832679,2.15223264 C23.5011517,2.16046663 23.5186345,2.16969868 23.5358767,2.18009514 C23.5537605,2.19074111 23.5707622,2.20230197 23.587042,2.21461137 C28.2455703,5.03978578 31.3813294,10.2835084 31.3813294,16.2726154 L31.3813294,16.2726985 C31.3813294,16.5942401 31.1299939,16.8549001 30.8199546,16.8549001 L18.0686481,16.8549001 C18.0647185,16.8549001 18.0607889,16.8549001 18.0569394,16.8548169 L16.6608806,16.8548169 L17.3273929,18.0572293 C17.3412668,18.0762756 17.3540983,18.0964032 17.3658871,18.117612 L23.7413399,29.5700147 Z M22.4603629,29.6539349 L15.2039528,16.5628012 C15.1041083,16.3826515 15.1043489,16.1609159 15.2047548,15.9810156 C15.3050804,15.8011153 15.4903341,15.6904139 15.6906647,15.6904139 L27.9494852,15.6904139 C27.7960695,12.2064369 26.2708143,8.93454754 23.7117474,6.64034091 C23.477173,6.43008299 23.4514299,6.06238115 23.6541664,5.81910409 C23.8569831,5.57574386 24.2112908,5.54896259 24.4460256,5.75938685 C27.2520974,8.27507957 28.9191398,11.8675956 29.0732772,15.6903307 L30.2478336,15.6903307 C30.0595325,10.5584739 27.3912381,6.07452421 23.4532745,3.49254369 L17.3658069,14.4277851 C17.2107873,14.7062438 16.8674666,14.8017248 16.5988888,14.6408709 C16.3303913,14.4801001 16.2384061,14.1240423 16.3933455,13.8455836 L21.3348868,4.9687572 C19.5998378,4.03623672 17.6598069,3.54560719 15.6904241,3.54560719 C14.2303686,3.54560719 12.8017501,3.80884545 11.4443459,4.32800285 C11.1531528,4.43928651 10.8306831,4.28483677 10.7234606,3.98317322 C10.6161578,3.68150966 10.7650825,3.34674379 11.0559548,3.23546013 C12.5381445,2.66864538 14.0974832,2.38120418 15.6905043,2.38120418 C17.8568494,2.38120418 19.9909556,2.92531307 21.8969031,3.95938612 L22.4818556,2.90859557 C20.4528868,1.7950936 18.1414664,1.1641535 15.6905043,1.1641535 C13.2395422,1.1641535 10.9280416,1.7950936 8.89907284,2.90867874 L14.9875027,13.8456668 C15.1425224,14.1241255 15.0504569,14.4801833 14.7819594,14.6409541 C14.5133015,14.801808 14.1700609,14.706327 14.0150413,14.4278683 L9.07406137,5.5518736 C6.11569666,7.51563929 4.12145298,10.6611909 3.57090475,14.2641033 C3.52238593,14.5816527 3.23456108,14.7986475 2.92853165,14.747996 C2.62234182,14.6976771 2.41343022,14.3994236 2.46194904,14.0818743 C3.06574768,10.1305558 5.25943978,6.68350699 8.51212525,4.54250252 L7.92773414,3.49271003 C3.9898507,6.07469055 1.32163654,10.5587234 1.13341561,15.6905802 L13.3126813,15.6905802 C13.6227205,15.6905802 13.874056,15.9512401 13.874056,16.2727817 C13.874056,16.5943233 13.6227205,16.8549832 13.3126813,16.8549832 L3.43176401,16.8549832 C3.58686383,20.3910257 5.14949053,23.6964332 7.77287491,25.9964618 C8.00961466,26.2040582 8.03928732,26.5714274 7.83911713,26.8169501 C7.63902713,27.0624728 7.28479966,27.0934126 7.04797972,26.885733 C4.17165592,24.3638856 2.46363316,20.7346909 2.30797197,16.8549832 L1.13341561,16.8549832 C1.32171674,21.98684 3.9898507,26.4707065 7.92781434,29.0526871 L14.0152819,18.1174456 C14.1704619,17.8389869 14.5137024,17.7435891 14.7822,17.9043599 C15.0506975,18.0651306 15.1426827,18.4211885 14.9877433,18.6996471 L10.046202,27.5763904 C11.781251,28.5090772 13.7214423,28.9997067 15.6907449,28.9997067 C17.1521637,28.9997067 18.5817446,28.7361358 19.9397903,28.2162298 C20.2307428,28.1049462 20.5534531,28.2592296 20.6608361,28.56081 C20.7681389,28.8623903 20.6193746,29.1972394 20.3285022,29.3086062 C18.8455908,29.8763358 17.2852096,30.1641929 15.6906647,30.1641929 C13.5243998,30.1641929 11.3901332,29.6200008 9.48418572,28.5857614 L8.89923323,29.6366352 C10.928202,30.7501371 13.2397026,31.3811604 15.6906647,31.3811604 C18.0542128,31.3810772 20.3827952,30.7854019 22.4603629,29.6539349 Z M27.7169156,25.6269302 C27.7992773,25.6710943 27.887333,25.6919704 27.9740253,25.6919704 C28.1773231,25.6919704 28.3734835,25.5771104 28.473328,25.3768331 L28.5419761,25.2389345 C28.6841643,24.9532399 28.5763002,24.602006 28.3007454,24.4544595 C28.0251104,24.3067467 27.6867618,24.4189452 27.544333,24.7045567 L27.4756849,24.8424553 C27.3334967,25.1281499 27.441441,25.4793837 27.7169156,25.6269302 Z M25.6618029,22.818806 C25.7441646,22.8629701 25.8322202,22.8838462 25.9189927,22.8838462 C26.1222906,22.8838462 26.318451,22.7689862 26.4182153,22.5687088 L26.4868634,22.4308103 C26.6291318,22.1451157 26.5212676,21.793965 26.245793,21.6463353 C25.970559,21.4987888 25.6317293,21.6107378 25.4893807,21.8963493 L25.4207325,22.0342479 C25.2784641,22.3200256 25.3864085,22.6712595 25.6618029,22.818806 Z M36,18.9894171 C36,21.9018386 35.2492014,24.7595331 33.8286827,27.2537676 C32.4499463,29.6745614 30.4796012,31.6959651 28.1308894,33.0992371 C28.0449189,33.1506371 27.8741006,33.2071939 27.7046456,33.156875 C27.5614148,33.1143743 27.4383134,33.0188101 27.3640515,32.8849037 L19.8229442,19.279603 C19.7230997,19.09937 19.7233403,18.8777176 19.8237462,18.6978173 C19.9240718,18.5179171 20.1093255,18.4072156 20.3096561,18.4072156 L35.4387055,18.4072156 C35.7487447,18.4072156 36,18.6678756 36,18.9894171 Z M34.866424,19.5716186 L21.2797918,19.5716186 L26.9065311,29.7230505 C29.7877469,27.8170891 31.7712442,24.7708445 32.3827417,21.2806296 C32.4381574,20.9643278 32.7294307,20.7542363 33.0355404,20.8118742 C33.3406074,20.8693458 33.5428627,21.1724233 33.487447,21.4888082 C32.8167646,25.3168663 30.6346208,28.6555425 27.4667029,30.7335028 L28.0519762,31.7895332 C32.1174521,29.1376885 34.6799674,24.5432037 34.866424,19.5716186 Z M17.7140999,26.1670469 L17.8637463,26.1670469 C18.1737856,26.1670469 18.4251211,25.9063869 18.4251211,25.5848453 C18.4251211,25.2633038 18.1737856,25.0026438 17.8637463,25.0026438 L17.7140999,25.0026438 C17.4040606,25.0026438 17.1527251,25.2633038 17.1527251,25.5848453 C17.1527251,25.9063869 17.4040606,26.1670469 17.7140999,26.1670469 Z M15.9898774,25.8482499 C15.9898774,26.8767505 15.1830215,27.7134572 14.1913129,27.7134572 C13.1997648,27.7134572 12.3929891,26.8767505 12.3929891,25.8482499 C12.3929891,24.8197494 13.1997648,23.9830427 14.1913129,23.9830427 C15.1830215,23.9829595 15.9898774,24.8197494 15.9898774,25.8482499 Z M14.8671279,25.8482499 C14.8671279,25.4618345 14.5639856,25.1474457 14.1913129,25.1474457 C13.8188007,25.1474457 13.5157385,25.4618345 13.5157385,25.8482499 C13.5157385,26.2346654 13.8188007,26.5490542 14.1913129,26.5490542 C14.5639856,26.548971 14.8671279,26.2346654 14.8671279,25.8482499 Z M14.9595944,21.1596148 C14.9595944,21.4811564 15.2109299,21.7418164 15.5209691,21.7418164 L15.6705354,21.7418164 C15.9805747,21.7418164 16.2319101,21.4811564 16.2319101,21.1596148 C16.2319101,20.8380733 15.9805747,20.5774133 15.6705354,20.5774133 L15.5209691,20.5774133 C15.2109299,20.5774133 14.9595944,20.8380733 14.9595944,21.1596148 Z M15.6159217,10.1911047 L15.7656483,10.1911047 C16.0756876,10.1911047 16.3270231,9.93044481 16.3270231,9.60890323 C16.3270231,9.28736166 16.0756876,9.02670172 15.7656483,9.02670172 L15.6159217,9.02670172 C15.3058824,9.02670172 15.0545469,9.28736166 15.0545469,9.60890323 C15.0545469,9.93044481 15.3058022,10.1911047 15.6159217,10.1911047 Z M11.1530726,19.722991 C11.1530726,20.7514916 10.3462167,21.5881983 9.35450815,21.5881983 C8.36287976,21.5881983 7.55610406,20.7514916 7.55610406,19.722991 C7.55610406,18.6944905 8.36287976,17.8577837 9.35450815,17.8577837 C10.3462969,17.8577837 11.1530726,18.6944905 11.1530726,19.722991 Z M10.0303231,19.722991 C10.0303231,19.3365756 9.72718078,19.0221868 9.35450815,19.0221868 C8.98191571,19.0221868 8.67885355,19.3365756 8.67885355,19.722991 C8.67885355,20.1094065 8.98191571,20.4237953 9.35450815,20.4237953 C9.72718078,20.4237121 10.0303231,20.1094065 10.0303231,19.722991 Z"></path>
        </g>
    </g>
</svg>