<?xml version="1.0" encoding="UTF-8"?>
<svg width="38px" height="38px" viewBox="0 0 38 38" version="1.1" xmlns="http://www.w3.org/2000/svg" xmlns:xlink="http://www.w3.org/1999/xlink">
    <!-- Generator: Sketch 51.3 (57544) - http://www.bohemiancoding.com/sketch -->
    <title>regular_serve_1</title>
    <desc>Created with Sketch.</desc>
    <defs></defs>
    <g id="regular_serve_1" stroke="none" stroke-width="1" fill="none" fill-rule="evenodd">
        <g id="pizza-(2)" transform="translate(1.000000, 1.000000)" fill="#646464" fill-rule="nonzero">
            <path d="M16.9554467,2.63414634 C7.60633094,2.63414634 0,10.2405175 0,19.5895955 L0,20.195122 L4.23884395,20.195122 L4.23884395,19.5895955 C4.23884395,12.5773258 9.94314863,6.87304412 16.9554467,6.87304412 L17.5609756,6.87304412 L17.5609756,2.63414634 L16.9554467,2.63414634 Z M16.3499179,5.67462269 C9.15112852,5.9846596 3.35052679,11.7852379 3.04048864,18.9839982 L1.22262472,18.9839982 C1.53443696,10.7836675 8.14955412,4.16864806 16.3499179,3.85676612 L16.3499179,5.67462269 Z" id="Shape"></path>
            <path d="M16.9554467,31.7611561 C9.94314863,31.7611561 4.23884395,26.0562127 4.23884395,19.0445533 L4.23884395,18.4390244 L0,18.4390244 L0,19.0445533 C0,28.3936691 7.60633094,36 16.9554467,36 L17.5609756,36 L17.5609756,31.7611561 L16.9554467,31.7611561 Z M16.3499179,34.7773753 C8.14955412,34.465563 1.53443696,27.8504459 1.22262472,19.6500821 L3.04048864,19.6500821 C3.35052679,26.8495101 9.15112852,32.6494732 16.3499179,32.9589437 L16.3499179,34.7773753 Z" id="Shape"></path>
            <path d="M19.0445533,0 L18.4390244,0 L18.4390244,4.23884395 L19.0445533,4.23884395 C26.0562127,4.23884395 31.7611561,9.94314863 31.7611561,16.9554467 L31.7611561,17.5609756 L36,17.5609756 L36,16.9554467 C36,7.60633094 28.3936691,0 19.0445533,0 Z M32.9595114,16.3499179 C32.6494732,9.15112852 26.8495101,3.35052679 19.6500821,3.04048864 L19.6500821,1.22262472 C27.8504459,1.53450792 34.4654921,8.14955412 34.7780139,16.3499179 L32.9595114,16.3499179 Z" id="Shape"></path>
            <path d="M29.1270097,18.4390244 L29.1270097,19.0445508 C29.1270097,26.0561819 23.4220664,31.7611022 16.4104069,31.7611022 L15.804878,31.7611022 L15.804878,36 L16.4104069,36 C25.7595227,36 33.3658537,28.3936998 33.3658537,19.0446218 L33.3658537,18.4390244 L29.1270097,18.4390954 L29.1270097,18.4390244 Z M17.0160067,34.7780189 L17.0160067,32.9595236 C24.2154348,32.6494867 30.0153978,26.8495471 30.3248683,19.6501482 L32.1433709,19.6501482 C31.8314167,27.8504788 25.2163705,34.4655692 17.0160067,34.7780189 Z" id="Shape"></path>
            <path d="M25.7561204,18.4390244 L25.7561204,19.609779 L28.6694588,19.609779 C28.3720884,25.9235671 23.2893521,31.0062348 16.9756326,31.3036052 L16.9756326,19.609779 L18.7317302,19.609779 L18.7317302,18.4390244 L15.804878,18.4390244 L15.804878,32.4878049 L16.390221,32.4878049 C23.8143979,32.4878049 29.8536585,26.4486128 29.8536585,19.0243674 L29.8536585,18.4390244 L25.7561204,18.4390244 Z" id="Shape"></path>
            <path d="M2.63414634,18.4390244 L2.63414634,19.0243674 C2.63414634,26.4485442 8.67395579,32.4878049 16.0975838,32.4878049 L16.6829268,32.4878049 L16.6829268,18.4390244 L2.63414634,18.4390244 Z M15.5121723,31.3036052 C9.19838415,31.0062348 4.11571646,25.9234985 3.81834604,19.609779 L15.5121723,19.609779 L15.5121723,31.3036052 Z" id="Shape"></path>
            <path d="M16.0975838,5.26829268 C8.67395579,5.26829268 2.63414634,11.3081021 2.63414634,18.7317302 L2.63414634,19.3170732 L16.6829268,19.3170732 L16.6829268,5.26829268 L16.0975838,5.26829268 Z M15.5122409,18.1463186 L3.81841463,18.1463186 C4.11578506,11.8325305 9.19852134,6.7498628 15.5122409,6.45249238 L15.5122409,18.1463186 Z" id="Shape"></path>
            <path d="M19.0243702,2.63414634 L18.4390244,2.63414634 L18.4390244,16.0975838 L19.6097161,16.0975838 L19.6097161,3.81834604 C25.923535,4.11571646 31.0062275,9.19845274 31.3035994,15.5121723 L26.0487262,15.5121723 L26.0487262,16.6829268 L32.4878049,16.6829268 L32.4878049,16.0975838 C32.4878049,8.67395579 26.4485833,2.63414634 19.0243702,2.63414634 Z" id="Shape"></path>
            <path d="M25.9651253,14.9268293 L25.9651253,21.9512195 C25.9651253,22.274314 25.6841432,22.5365625 25.3379686,22.5365625 C24.991794,22.5365625 24.7108119,22.274314 24.7108119,21.9512195 L24.7108119,20.195122 C24.7108119,19.226936 23.8666162,18.4390244 22.8292683,18.4390244 C21.7919204,18.4390244 20.9477247,19.226936 20.9477247,20.195122 L20.9477247,20.7804649 C20.9477247,21.1035595 20.6667426,21.3658079 20.320568,21.3658079 C19.9743934,21.3658079 19.6934113,21.1035595 19.6934113,20.7804649 L19.6934113,16.6829268 L18.4390244,16.6829268 L18.4390244,20.7804649 C18.4390244,21.7486509 19.2832201,22.5365625 20.320568,22.5365625 C21.3579159,22.5365625 22.2021116,21.7486509 22.2021116,20.7804649 L22.2021116,20.195122 C22.2021116,19.8720274 22.4830937,19.609779 22.8292683,19.609779 C23.1754429,19.609779 23.456425,19.8720274 23.456425,20.195122 L23.456425,21.9512195 C23.456425,22.9194055 24.3006207,23.7073171 25.3379686,23.7073171 C26.3753165,23.7073171 27.2195122,22.9194055 27.2195122,21.9512195 L27.2195122,14.9268293 L25.9651253,14.9268293 Z" id="Shape"></path>
            <path d="M10.5365854,14.0487805 C9.56839939,14.0487805 8.7804878,14.8366921 8.7804878,15.804878 C8.7804878,16.773064 9.56839939,17.5609756 10.5365854,17.5609756 C11.5047713,17.5609756 12.2926829,16.773064 12.2926829,15.804878 C12.2926829,14.8366921 11.5047713,14.0487805 10.5365854,14.0487805 Z M10.5365854,16.390221 C10.2140396,16.390221 9.95124238,16.1274238 9.95124238,15.804878 C9.95124238,15.4823323 10.2140396,15.2195351 10.5365854,15.2195351 C10.8591311,15.2195351 11.1219284,15.4823323 11.1219284,15.804878 C11.1219284,16.1274238 10.8591311,16.390221 10.5365854,16.390221 Z" id="Shape"></path>
            <rect id="Rectangle-path" x="13.1707317" y="15.804878" width="1" height="1"></rect>
            <path d="M12.731643,8.7804878 C11.5210269,8.7804878 10.5365854,9.96192941 10.5365854,11.4146341 L11.6341463,11.4146341 C11.6341463,10.6882818 12.1263671,10.0975224 12.7317073,10.0975224 C13.3370475,10.0975224 13.8292683,10.6882046 13.8292683,11.4146341 L14.9268293,11.4146341 C14.9267007,9.96192941 13.9422591,8.7804878 12.731643,8.7804878 Z" id="Shape"></path>
            <rect id="Rectangle-path" x="7.90243902" y="12.2926829" width="1" height="1"></rect>
            <path d="M22.8292683,9.65853659 C21.8610823,9.65853659 21.0731707,10.4464482 21.0731707,11.4146341 C21.0731707,12.3828201 21.8610823,13.1707317 22.8292683,13.1707317 C23.7974543,13.1707317 24.5853659,12.3828201 24.5853659,11.4146341 C24.5853659,10.4464482 23.7974543,9.65853659 22.8292683,9.65853659 Z M22.8292683,12.0000457 C22.5061738,12.0000457 22.2439253,11.7372485 22.2439253,11.4147027 C22.2439253,11.092157 22.5061738,10.8293598 22.8292683,10.8293598 C23.1523628,10.8293598 23.4146113,11.092157 23.4146113,11.4147027 C23.4146113,11.7371799 23.1523628,12.0000457 22.8292683,12.0000457 Z" id="Shape"></path>
            <path d="M25.4634146,8.7804878 L25.4634146,9.87804878 C26.189767,9.87804878 26.7805264,10.3702695 26.7805264,10.9756098 C26.7805264,11.5808857 26.1898442,12.0731707 25.4634146,12.0731707 L25.4634146,13.1707317 C26.9161965,13.1707317 28.097561,12.1862259 28.097561,10.9756741 C28.097561,9.76512225 26.9161965,8.7804878 25.4634146,8.7804878 Z" id="Shape"></path>
            <rect id="Rectangle-path" x="21.9512195" y="7.02439024" width="1" height="1"></rect>
            <rect id="Rectangle-path" x="28.9756098" y="14.0487805" width="1" height="1"></rect>
            <path d="M8.7804878,21.0731707 C7.81230183,21.0731707 7.02439024,21.8610823 7.02439024,22.8292683 C7.02439024,23.7974543 7.81230183,24.5853659 8.7804878,24.5853659 C9.74867378,24.5853659 10.5365854,23.7974543 10.5365854,22.8292683 C10.5365854,21.8610823 9.74867378,21.0731707 8.7804878,21.0731707 Z M8.7804878,23.4146113 C8.45794207,23.4146113 8.19514482,23.1523628 8.19514482,22.8292683 C8.19514482,22.5061738 8.45794207,22.2439253 8.7804878,22.2439253 C9.10303354,22.2439253 9.36583079,22.5061738 9.36583079,22.8292683 C9.36583079,23.1523628 9.10303354,23.4146113 8.7804878,23.4146113 Z" id="Shape"></path>
            <rect id="Rectangle-path" x="13.1707317" y="21.0731707" width="1" height="1"></rect>
            <path d="M13.8293648,25.4634146 C13.8293648,26.189767 13.3371296,26.7805264 12.7317716,26.7805264 C12.1264137,26.7805264 11.6341785,26.1898442 11.6341785,25.4634146 L10.5365854,25.4634146 C10.5365854,26.9161965 11.52112,28.097561 12.7317073,28.097561 C13.9422946,28.097561 14.9268293,26.9161194 14.9268293,25.4634146 L13.8293648,25.4634146 Z" id="Shape"></path>
            <rect id="Rectangle-path" x="14.0487805" y="28.9756098" width="1" height="1"></rect>
            <path d="M25.4634146,22.8292683 C24.4952287,22.8292683 23.7073171,23.6171799 23.7073171,24.5853659 C23.7073171,25.5535518 24.4952287,26.3414634 25.4634146,26.3414634 C26.4316006,26.3414634 27.2195122,25.5535518 27.2195122,24.5853659 C27.2195122,23.6171799 26.4316006,22.8292683 25.4634146,22.8292683 Z M25.4634146,25.1707088 C25.1403201,25.1707088 24.8780716,24.9084604 24.8780716,24.5853659 C24.8780716,24.2622713 25.1403201,24.0000229 25.4634146,24.0000229 C25.7865091,24.0000229 26.0487576,24.2622713 26.0487576,24.5853659 C26.0487576,24.9084604 25.7865091,25.1707088 25.4634146,25.1707088 Z" id="Shape"></path>
            <path d="M21.0731707,24.5853659 L21.0731707,25.6829268 C21.7995231,25.6829268 22.3902825,26.1751476 22.3902825,26.7804878 C22.3902825,27.3857637 21.7996003,27.8780488 21.0731707,27.8780488 L21.0731707,28.9756098 C22.5259526,28.9756098 23.7073171,27.9911039 23.7073171,26.7805521 C23.7073171,25.5698074 22.5258755,24.5853659 21.0731707,24.5853659 Z" id="Shape"></path>
            <rect id="Rectangle-path" x="18.4390244" y="23.7073171" width="1" height="1"></rect>
            <rect id="Rectangle-path" x="19.3170732" y="26.3414634" width="1" height="1"></rect>
        </g>
    </g>
</svg>